<?xml version="1.0" encoding="UTF-8" standalone="no"?>
<!-- Created with Inkscape (http://www.inkscape.org/) -->

<svg
   width="210mm"
   height="297mm"
   viewBox="0 0 210 297"
   version="1.1"
   id="svg5138"
   inkscape:version="1.4.3 (fcd0343856, 2026-01-01)"
   sodipodi:docname="pipemaster_sticker.svg"
   inkscape:export-filename="pipemaster_sticker.png"
   inkscape:export-xdpi="96"
   inkscape:export-ydpi="96"
   xmlns:inkscape="http://www.inkscape.org/namespaces/inkscape"
   xmlns:sodipodi="http://sodipodi.sourceforge.net/DTD/sodipodi-0.dtd"
   xmlns="http://www.w3.org/2000/svg"
   xmlns:svg="http://www.w3.org/2000/svg"
   xmlns:rdf="http://www.w3.org/1999/02/22-rdf-syntax-ns#"
   xmlns:cc="http://creativecommons.org/ns#"
   xmlns:dc="http://purl.org/dc/elements/1.1/">
  <defs
     id="defs5132" />
  <sodipodi:namedview
     id="base"
     pagecolor="#ffffff"
     bordercolor="#666666"
     borderopacity="1.0"
     inkscape:pageopacity="0.0"
     inkscape:pageshadow="2"
     inkscape:zoom="1.4"
     inkscape:cx="27.857143"
     inkscape:cy="118.92857"
     inkscape:document-units="mm"
     inkscape:current-layer="layer1"
     showgrid="false"
     showguides="true"
     inkscape:guide-bbox="true"
     inkscape:window-width="1854"
     inkscape:window-height="1011"
     inkscape:window-x="66"
     inkscape:window-y="32"
     inkscape:window-maximized="1"
     inkscape:showpageshadow="2"
     inkscape:pagecheckerboard="0"
     inkscape:deskcolor="#d1d1d1" />
  <metadata
     id="metadata5135">
    <rdf:RDF>
      <cc:Work
         rdf:about="">
        <dc:format>image/svg+xml</dc:format>
        <dc:type
           rdf:resource="http://purl.org/dc/dcmitype/StillImage" />
        <dc:title />
      </cc:Work>
    </rdf:RDF>
  </metadata>
  <g
     inkscape:label="Layer 1"
     inkscape:groupmode="layer"
     id="layer1">
    <g
       id="g1">
      <rect
         style="fill:#222222;fill-opacity:1;stroke:#222222;stroke-width:0.333857;stroke-opacity:1"
         id="rect5190"
         width="27.878422"
         height="8.4401207"
         x="53.515427"
         y="61.363503"
         ry="0"
         rx="0" />
      <rect
         style="fill:#222222;fill-opacity:1;stroke:#222222;stroke-width:0.31167;stroke-opacity:1"
         id="rect5186"
         width="28.004206"
         height="10.100163"
         x="53.456459"
         y="65.393669"
         ry="5.0500817" />
      <circle
         cy="43.119884"
         cx="67.051155"
         style="fill:#ffffff;fill-opacity:1;stroke:#222222;stroke-width:0.392434;stroke-linejoin:bevel;stroke-miterlimit:4;stroke-dasharray:none;stroke-dashoffset:0;stroke-opacity:1"
         id="path9295"
         r="25.768881" />
      <circle
         r="24.160187"
         cy="43.23838"
         cx="66.970734"
         id="path9297"
         style="fill:#222222;stroke:#222222;stroke-width:0.368;stroke-linejoin:bevel;stroke-miterlimit:4;stroke-dasharray:none;stroke-dashoffset:0;stroke-opacity:1;fill-opacity:1" />
      <path
         sodipodi:nodetypes="ccccccccccccccccsssssssscsssssssssscssssssscssccssccssscsccssssssscssssssccccssssssccccsssssssccccscssssssccssssssssssccssscsssssccsssssssssssssssscssssssssssssssssssssssssssssscsssssccsssscssssssssssssssssscsscsssccssssssssssssscsssscsscssssscsssscsssssscccccccssssssssscssccssssssssscssssscscssssssssssscsscsssssscsssssssssssssscssssccccsssssssssssssscscsssssssssssssssccssssscsssssssssscsscssssssssssssssssssccssscccsssssssssscsccsscscssccsscssssscssssssccscssscsscsssscssssscscsssssscssscsscsscscsccccscccsssccsssscsccsssscssscsssssssccsssccsccssssssssccscsssssssscssccsccscccssssssscsscscsssssssssccccssscsscccssssssssssscsscssscscssssscsssccccccccssscccssssssccsscssccsssssssssssccsssssscssscscsssssscssscsssssscssssscscsccccccccscssssssssscccccscccsscssccscccsccsccccccccc"
         style="fill:#ffffff;stroke-width:1.77358"
         d="m 87.398586,29.121462 -5.922212,19.738831 -0.0088,14.572679 0.580639,-0.341333 -0.13622,-14.190168 5.561231,-18.649335 z m -34.286767,19.507079 -7.626372,-16.490174 0.339857,-0.703527 2.998831,6.564227 4.824498,10.604516 -0.151625,9.012943 c 0.320352,7.649479 0.184817,6.967236 -0.421169,2.272582 z m 2.924295,16.097392 c -0.869477,0.135142 -1.323105,-0.848268 -0.59418,-1.288082 0.394424,-0.238031 0.225913,-1.342108 -0.168457,-1.580082 -0.485791,-0.293137 -0.473388,-0.931256 0.02358,-1.21248 0.417683,-0.236365 0.359028,-1.317945 -0.09399,-1.730714 -0.420833,-0.383563 -0.405549,-0.738803 0.04759,-1.107016 0.418423,-0.339926 0.433168,-1.43355 0.02286,-1.681218 -0.483644,-0.291795 -0.468293,-0.980754 0.02748,-1.226308 0.857734,-0.424924 1.473345,0.587209 0.745576,1.225781 -0.504022,0.442284 -0.336038,1.931751 0.18622,1.651731 0.356078,-0.19091 1.462352,-1.580116 1.406165,-1.765831 -0.0315,-0.104979 -0.05429,-0.406085 -0.05026,-0.668854 0.01075,-0.655182 -1.151466,-1.982953 -1.704932,-1.947894 -0.971691,0.06167 -1.351097,-0.894167 -0.537538,-1.354021 0.315459,-0.178316 0.416746,-1.257433 0.137957,-1.471047 -0.454149,-0.348169 -0.589356,-0.519775 -0.589356,-0.748117 0,-0.228317 0.135142,-0.399919 0.589356,-0.748095 0.281002,-0.215388 0.17703,-1.292974 -0.142243,-1.473367 -0.363051,-0.205245 -0.509317,-0.542498 -0.374512,-0.863841 0.05498,-0.131455 0.106244,-0.280735 0.113482,-0.331814 0.05029,-0.355008 -1.504336,-1.699548 -1.912346,-1.653599 -0.771745,0.08695 -1.18341,-0.590358 -0.684181,-1.125619 0.495175,-0.530968 1.264975,-0.19365 1.241582,0.544042 -0.01619,0.487062 1.375551,2.060616 1.821543,2.060616 0.818894,0 1.119962,0.797192 0.49973,1.323233 -0.432095,0.36647 -0.419894,1.287289 0.02215,1.686946 0.423315,0.382625 0.423315,0.780394 0,1.163023 -0.478816,0.432767 -0.417347,1.711054 0.08231,1.711054 0.32853,0 1.682932,-1.813814 1.455133,-1.948672 -0.161006,-0.09539 -0.08796,-0.618783 0.115836,-0.829455 0.267328,-0.276309 0.764035,-0.28328 1.04444,-0.01405 0.447716,0.428879 0.136957,1.187981 -0.486457,1.187981 -0.324039,0 -0.347367,0.01952 -1.304263,1.099388 -0.991446,1.118743 -0.184602,3.254865 1.21842,3.225691 0.489743,-0.01075 0.769183,0.236031 0.765619,0.67456 -0.0035,0.464138 -0.28965,0.731769 -0.78162,0.731769 -0.200103,0 -0.338317,0.114027 -0.902875,0.745077 -0.932818,1.042567 -0.898217,0.989979 -0.877096,1.332939 0.01619,0.271083 -0.01952,0.342876 -0.303859,0.602025 -0.497453,0.453345 -0.493901,1.373211 0.0073,1.829749 0.420833,0.383562 0.40555,0.738789 -0.04759,1.107016 -0.443019,0.3599 -0.433569,1.330212 0.01619,1.692177 0.287235,0.230984 0.2987,0.258813 0.299369,0.725979 0.6779,1.549016 1.579206,1.529769 1.735263,0.640368 -0.809784,-0.654913 -0.807875,-0.924513 0.01075,-1.552237 0.184148,-0.141171 0.184148,-1.190127 0,-1.331305 -0.764291,-0.585868 -0.809767,-1.158485 -0.113891,-1.434601 0.42204,-0.167458 0.371096,-1.286559 -0.07662,-1.682469 -0.506702,-0.448116 -0.412856,-1.029145 0.197412,-1.222074 0.801749,-0.253451 1.282068,0.771827 0.600816,1.282566 -0.401529,0.300976 -0.333891,1.818102 0.07521,1.685265 0.252713,-0.08212 1.442792,-1.639202 1.392671,-1.822181 -0.244335,-0.891741 0.473254,-1.51466 1.122429,-0.974339 0.530565,0.441612 0.197959,1.22688 -0.524065,1.236936 -0.519105,0.0073 -1.827441,1.531716 -1.827441,2.12931 0,0.329332 -0.03216,0.399516 -0.279193,0.608995 -0.275774,0.233888 -0.279193,0.24447 -0.279193,0.855469 0,0.608057 0.0052,0.623005 0.279193,0.870968 0.403404,0.364524 0.403404,0.826188 0,1.134549 -1.144335,0.893543 0.594584,1.528562 -2.648014,0.02482 z m 4.527134,1.714578 c 0.375251,-0.185888 0.365529,-1.493643 -0.01265,-1.643529 -0.573267,-0.227437 -0.601086,-0.946614 -0.05026,-1.289891 0.420968,-0.262235 0.464874,-1.370993 0.06234,-1.570491 -0.739106,-0.366134 -0.538073,-1.370304 0.274367,-1.370304 0.700562,0 0.987262,0.816698 0.441948,1.258834 -0.369753,0.299772 -0.37438,1.477096 -0.0073,1.737383 0.423447,0.299908 0.400925,0.845222 -0.04892,1.184174 -0.331009,0.249429 -0.281003,1.533334 0.0706,1.814571 C 61.149511,67.072987 60.56255,66.44047 60.56255,66.44047 Z m 2.488809,0.0315 c 0.445903,-0.224888 0.455488,-1.386231 0.01405,-1.708707 -0.471175,-0.344282 -0.531772,-0.972206 -0.114557,-1.186137 0.339791,-0.174149 0.398715,-0.302454 0.39744,-0.865081 -0.0015,-0.599679 -0.02815,-0.671196 -0.304665,-0.810758 -0.772665,-0.390066 -0.233199,-1.563131 0.597935,-1.300353 0.572795,0.181124 0.666575,0.794078 0.186554,1.218639 -0.493698,0.436587 -0.4882,1.325828 0.01075,1.7672 0.432632,0.382625 0.415941,0.807641 -0.04558,1.162351 -0.456429,0.350788 -0.436722,1.369903 0.03486,1.799658 1.258586,0.840252 -2.181015,0.932249 -0.776886,-0.07682 z m 2.552653,0 c 0.495843,-0.250168 0.448316,-1.221644 -0.07133,-1.455583 -0.828488,-0.373105 -0.847862,-1.496458 -0.0315,-1.820457 0.401395,-0.159268 0.366134,-0.989395 -0.05698,-1.339696 -0.271483,-0.224842 -0.298365,-0.282075 -0.299168,-0.636546 -7.12e-4,-0.37867 -0.02072,-0.411985 -0.711435,-1.193938 -0.679783,-0.769507 -0.761831,-0.837345 -0.980796,-0.810933 -0.456897,0.05495 -0.966336,-0.52869 -0.861253,-0.987036 0.04224,-0.185292 -0.03352,-0.306475 -0.573804,-0.915879 -0.342537,-0.386244 -0.672031,-0.768053 -0.73223,-0.848391 -0.07628,-0.101809 -0.205649,-0.146125 -0.426797,-0.146125 -0.644927,0 -1.010093,-0.601622 -0.745121,-1.227624 0.131047,-0.309758 -1.392035,-1.748289 -1.796144,-1.696358 -0.26203,0.03352 -0.339389,0.0073 -0.548262,-0.193722 -0.618983,-0.593041 0.0018,-1.427078 0.847343,-1.138073 0.191388,0.06569 0.313916,-0.04358 1.215921,-1.077824 0.48599,-0.557447 0.48599,-0.557447 0.359766,-0.791231 -0.08781,-0.162625 -0.112285,-0.342002 -0.0805,-0.588887 0.07146,-0.555301 -1.232696,-1.958638 -1.823441,-1.96199 -0.549402,-0.0035 -0.800829,-0.286233 -0.734017,-0.826617 0.04959,-0.400456 0.03016,-0.427872 -1.396165,-1.993342 -0.03552,-0.03888 -0.244804,-0.06301 -0.464873,-0.05362 -0.603968,0.02615 -0.838523,-0.221888 -0.773381,-0.818894 0.07079,-0.648077 -1.167601,-2.075024 -1.800735,-2.075024 -0.603233,0 -0.895536,-0.309424 -0.822376,-0.870403 0.04826,-0.369686 -1.053527,-1.93379 -1.38153,-1.96126 -0.02748,-0.0018 -0.207746,-0.01405 -0.400726,-0.0248 -0.752057,-0.04424 -0.981967,-0.761688 -0.40689,-1.270282 0.479756,-0.424252 0.476069,-1.030908 -0.0088,-1.459711 -0.335633,-0.296891 -0.391673,-0.578363 -0.19834,-0.996597 0.145791,-0.315255 -1.35612,-1.70851 -1.84189,-1.708665 -0.896484,-2.47e-4 -1.162243,-0.894381 -0.403939,-1.359101 0.392345,-0.240449 0.331345,-1.214016 -0.09967,-1.591486 -0.484781,-0.424521 -0.44617,-0.907366 0.09967,-1.247732 -0.0956,-2.253164 0.208935,0.354671 1.017099,-2.22645 0,0.23134 -0.06034,0.342337 -0.319077,0.587813 -0.31519,0.298967 -0.319079,0.309491 -0.319079,0.869746 0,0.563548 0.0018,0.568909 0.319079,0.849934 0.268734,0.238167 0.319077,0.330539 0.319077,0.585063 0,0.255061 -0.04959,0.345824 -0.319077,0.581645 -0.492291,0.431092 -0.486393,1.242291 0.01211,1.683403 0.32464,0.28717 0.330403,0.300978 0.283078,0.683945 -0.05967,0.484984 1.38841,2.219196 1.699551,2.034976 0.211746,-0.125428 0.09009,-1.404006 -0.144719,-1.520304 -0.503084,-0.249227 -0.546521,-0.793127 -0.09526,-1.192195 0.434577,-0.384302 0.495845,-1.436855 0.09526,-1.63532 -0.65927,-0.326585 -0.430153,-1.34501 0.302653,-1.34501 0.766617,0 1.042198,0.816168 0.432834,1.281946 -0.371767,0.284152 -0.427671,1.453249 -0.07682,1.606388 0.501475,0.218864 0.542097,0.865437 0.07682,1.221094 -0.418757,0.320149 -0.420903,1.393838 -0.0035,1.712975 0.443761,0.339188 0.407563,1.013761 -0.06569,1.220231 -0.361039,0.157671 -0.30453,1.072569 0.08619,1.396163 0.303794,0.251575 0.354471,0.449592 0.236151,0.92251 -0.109455,0.437189 1.211039,1.7952 1.734493,1.783904 0.671658,-0.01405 0.994059,0.461254 0.735468,1.085237 -0.09967,0.240246 1.452584,1.850877 1.742564,1.808206 0.604167,-0.08888 0.97464,0.27242 0.891902,0.869834 -0.04959,0.3601 1.07761,1.870261 1.516856,2.031746 0.418153,0.153766 0.541292,-1.291078 0.131795,-1.546387 -0.35695,-0.222555 -0.422709,-0.349243 -0.400053,-0.770659 0.03083,-0.577556 -1.23739,-2.125283 -1.687738,-2.059357 -0.605643,0.08869 -1.012166,-0.317131 -0.918346,-0.916644 0.07876,-0.503016 -1.318481,-2.012747 -1.866019,-2.016224 -0.606047,-0.0035 -0.98477,-0.541161 -0.718697,-1.019755 0.436856,-0.785789 1.57131,-0.280602 1.327865,0.591296 -0.09291,0.333021 -0.09291,0.333021 0.6098,1.086494 0.888992,0.953143 0.859499,0.932342 1.261657,0.889327 0.593711,-0.06367 0.999222,0.44845 0.784206,0.99016 -0.10551,0.265988 1.225458,1.892558 1.548679,1.892558 0.453546,0 0.415135,-1.213897 -0.05095,-1.622409 -0.329402,-0.288443 -0.329402,-0.288443 -0.275304,-0.74593 0.07641,-0.647875 -1.182517,-2.043986 -1.804262,-2.000709 -0.551214,0.03822 -0.82174,-0.215651 -0.82174,-0.771598 0,-0.587947 -1.159939,-1.813471 -1.716401,-1.813471 -0.738771,0 -1.108029,-0.669795 -0.647339,-1.174166 0.60417,-0.661417 1.542165,0.05229 1.169023,0.889863 -0.122408,0.274433 1.375305,1.608446 1.688344,1.503875 0.55664,-0.185958 1.034192,0.267797 0.936786,0.890071 -0.06167,0.392614 1.250078,1.972327 1.597933,1.924621 0.365532,-0.05026 0.272691,-1.244436 -0.123931,-1.5953 -0.320216,-0.283148 -0.331478,-0.30869 -0.290319,-0.658601 0.06234,-0.527146 -1.175057,-1.780344 -1.757427,-1.780344 -0.538007,0 -0.854637,-0.33188 -0.79292,-0.831116 0.0699,-0.568775 -1.221039,-2.032584 -1.797988,-2.038242 -0.817708,-0.0088 -1.150822,-0.953123 -0.457098,-1.296808 0.673641,-0.333691 1.386252,0.326654 1.033644,0.957809 -0.08352,0.149481 0.05498,0.342204 1.032704,1.43843 0.336774,0.377529 0.385307,0.40535 0.649415,0.372034 0.649685,-0.0819 1.000161,0.259014 0.921905,0.896894 -0.07359,0.599878 1.101489,1.729674 1.770914,1.702661 0.378536,-0.01619 0.446977,0.0052 0.618248,0.197221 0.352056,0.39201 0.260356,0.796251 -0.276244,1.217688 -0.251308,0.197339 -0.251308,1.217903 0,1.41525 0.604771,0.474994 0.65022,0.874853 0.149696,1.317487 -0.316866,0.280199 -0.319078,0.286165 -0.319078,0.846299 0,0.560598 0.0018,0.565826 0.319078,0.843517 0.519306,0.454753 0.464204,0.842881 -0.19184,1.350851 -0.311368,0.24105 -0.126625,1.468043 0.221007,1.468043 0.344148,0 1.603625,-1.621367 1.493838,-1.923079 -0.142458,-0.391336 -0.103768,-0.530833 0.231936,-0.836773 0.385574,-0.351386 0.504157,-1.605869 0.161553,-1.71002 -0.660142,-0.200698 -0.597197,-1.234164 0.08386,-1.377488 0.800334,-0.16853 1.230092,0.752178 0.582318,1.247312 -0.448519,0.342873 -0.41346,1.418211 0.06034,1.850025 0.565424,0.515282 0.260493,1.221656 -0.527347,1.221656 -1.219057,0 -2.242344,2.358833 -1.424153,3.282851 1.038258,1.172534 1.110406,1.22133 1.442191,0.975405 0.272557,-0.202032 0.120461,-1.264639 -0.20365,-1.423071 -0.671518,-0.328194 -0.611543,-1.22147 0.09043,-1.347641 0.800564,-0.143862 1.201214,0.685875 0.610672,1.264633 -0.257004,0.251842 -0.351386,1.181826 -0.155506,1.532307 0.268669,0.480898 1.859068,-1.242416 1.63709,-1.773901 -0.250235,-0.599207 0.16972,-1.137472 0.799334,-1.024331 0.771619,0.138694 0.772114,1.221839 4.98e-4,1.376348 -0.113482,0.02286 -0.287103,0.05898 -0.385776,0.08072 -0.353869,0.07769 -1.529273,1.595251 -1.578574,2.03808 -0.05162,0.462728 -0.333558,0.749336 -0.739214,0.751219 -0.327859,0.0018 -0.298365,-0.02215 -1.131439,0.905502 -1.081175,1.203835 -1.100192,1.564847 -0.137624,2.61614 0.92586,1.011315 1.213753,1.023837 1.213753,0.05295 0,-0.440342 -0.02615,-0.540891 -0.171529,-0.653373 -0.519775,-0.402935 -0.627697,-0.639293 -0.464404,-1.016884 0.247753,-0.572999 1.103947,-0.572999 1.351716,0 0.136218,0.314988 0.04693,0.591701 -0.281139,0.869788 -0.264981,0.224699 -0.275035,0.253183 -0.275035,0.777073 0,0.939148 0.233532,0.960773 1.044462,0.09686 0.856414,-0.912486 0.807284,-0.825143 0.662622,-1.177871 -0.174888,-0.426464 -0.01619,-0.793074 0.440675,-1.016228 0.44597,-0.217984 0.513272,-1.285299 0.09151,-1.452619 -0.824447,-0.327123 -0.648344,-1.377824 0.230865,-1.377824 0.64754,0 0.926679,0.686853 0.47808,1.176296 -0.299639,0.326921 -0.343276,1.612984 -0.05495,1.612984 0.350983,0 1.489722,-1.480922 1.362701,-1.772161 -0.15753,-0.360904 -0.07682,-0.654912 0.256401,-0.935158 0.381215,-0.320687 0.42271,-1.360374 0.06301,-1.585995 -0.280733,-0.176291 -0.441545,-0.563145 -0.383227,-0.922047 0.0706,-0.434375 -1.248336,-1.853379 -1.722594,-1.853379 -0.825157,0 -1.146306,-0.994607 -0.470105,-1.455882 0.343277,-0.234222 0.359635,-1.288965 0.02358,-1.500114 -0.275238,-0.172743 -0.447177,-0.573935 -0.384098,-0.896084 0.07876,-0.401862 -1.293116,-1.877053 -1.746855,-1.878419 -0.474729,-0.0015 -0.886205,-0.42412 -0.826687,-0.849282 0.04089,-0.292332 0.01619,-0.338586 -0.44845,-0.84962 -0.270479,-0.297291 -0.567303,-0.62783 -0.659606,-0.73454 -0.145053,-0.167791 -0.223555,-0.191649 -0.580438,-0.175958 -0.631922,0.02748 -0.928154,-0.279862 -0.861183,-0.893799 0.06898,-0.631786 -1.108028,-1.960179 -1.739942,-1.963787 -0.552419,-0.0035 -0.873221,-0.351787 -0.819219,-0.890211 0.03619,-0.363722 0.02547,-0.386715 -0.401728,-0.8488 -1.077711,-1.165885 -0.964326,-1.077692 -1.397205,-1.087089 -0.611609,-0.01405 -0.891545,-0.345489 -0.82273,-0.976336 0.04959,-0.456428 0.04959,-0.456428 -0.501944,-1.076973 -0.883047,-0.993189 -0.834488,-0.956246 -1.195533,-0.909852 -0.658735,0.0846 -1.058527,-0.680823 -0.61409,-1.175781 0.522054,-0.581377 1.470316,-0.01265 1.234682,0.741646 -0.08869,0.283484 0.630579,1.27824 1.321107,1.827268 0.501205,0.398511 0.535595,-1.026907 0.03552,-1.465001 -0.32605,-0.285494 -0.328665,-0.291928 -0.289046,-0.727643 0.06369,-0.703209 -1.033945,-1.995796 -1.700356,-2.002023 0.846233,0.402333 0.530769,0.116366 0.722954,-0.651092 0,0.375318 1.251593,1.976375 1.508323,1.929425 0.276781,-0.05026 0.219127,-1.252647 -0.06702,-1.394334 -0.558989,-0.276913 -0.624651,-1.335666 -0.0035,-1.303036 0.752847,0.03955 -0.174555,-0.281673 0.752847,0.03955 2.250555,-2.064785 2.678715,-1.553056 2.02074,-1.527884 -0.471378,6.91e-4 -1.738985,1.488937 -1.738985,2.041444 0,0.416878 -0.03822,0.479622 -0.510928,0.84589 -0.245541,0.190173 -0.177029,1.205611 0.09203,1.36584 0.596327,0.354939 0.689978,0.945287 0.215983,1.361227 -0.358427,0.314518 -0.408031,1.506761 -0.06437,1.553659 0.387049,0.05295 1.579856,-1.461259 1.463848,-1.858223 -0.127509,-0.43632 -0.01211,-0.73453 0.367677,-0.949128 0.364995,-0.20634 0.428944,-1.403424 0.08178,-1.529898 -0.774828,-0.282207 -0.60122,-1.379351 0.218246,-1.379351 0.698755,0 0.994624,0.778214 0.467423,1.229447 -0.382022,0.327054 -0.3963,1.447296 -0.02215,1.761595 0.600282,0.504624 0.247218,1.288422 -0.580303,1.288422 -0.179244,0 -0.311102,0.05095 -0.382895,0.14753 -0.06034,0.08124 -0.373508,0.44215 -0.696185,0.80214 -0.890038,0.992885 -0.871396,1.407921 0.110666,2.464657 0.910429,0.979641 1.025464,0.993068 1.057513,0.123414 0.02286,-0.626892 0.02286,-0.626892 -0.216984,-0.745875 -0.667113,-0.330473 -0.431558,-1.340071 0.312642,-1.340071 0.749659,0 1.026519,0.828158 0.429415,1.284553 -0.415471,0.317603 -0.40535,1.542947 0.01211,1.542947 0.294744,0 1.463901,-1.615343 1.421161,-1.963567 -0.08848,-0.720893 0.666509,-1.147566 1.197021,-0.676537 0.545382,0.484181 0.05295,1.323489 -0.710421,1.211074 -0.22115,-0.03283 -0.293875,0.01952 -0.7929,0.562877 -0.302185,0.329266 -0.621598,0.677014 -0.709828,0.772736 -0.144528,0.156791 -0.150956,0.207603 -0.06569,0.513338 0.06367,0.229461 0.06971,0.402201 0.01737,0.533517 -0.12434,0.313179 1.400408,1.983825 1.638065,1.794885 0.271955,-0.216175 0.154101,-1.203627 -0.165101,-1.384074 -0.863512,-0.488066 -0.256604,-1.725431 0.625486,-1.27535 0.477746,0.243732 0.523594,0.825747 0.0945,1.199798 -0.452406,0.394356 -0.425324,1.241292 0.05362,1.677898 0.30882,0.28154 0.332215,0.331278 0.323701,0.688343 -0.01404,0.559859 1.110369,1.81374 1.562441,1.743449 0.734547,-0.114217 1.213337,0.48914 0.934868,1.178 -0.04624,0.1137 0.220532,0.44463 1.100497,1.36669 0.277584,0.290854 0.363721,0.33684 0.602359,0.321423 0.898209,-0.05831 1.282241,0.762052 0.647472,1.382449 -0.485185,0.474193 -0.480895,1.197988 0.01075,1.663478 0.326318,0.30956 0.328597,0.315525 0.280869,0.74805 -0.05095,0.459713 1.074205,1.926182 1.477609,1.926182 0.260826,0 0.215317,-1.320807 -0.04959,-1.436371 -0.501473,-0.218864 -0.542096,-0.865438 -0.07682,-1.221115 0.41909,-0.320351 0.420901,-1.393823 0.0035,-1.713299 -0.453479,-0.346627 -0.417683,-1.008813 0.06569,-1.219887 0.196744,-0.08586 0.203578,-0.112407 0.203578,-0.790305 0,-0.677867 -0.0052,-0.704438 -0.203578,-0.790313 -0.861536,-0.376056 -0.218532,-1.622489 0.656387,-1.272296 0.369686,0.147934 1.757445,-1.105422 1.650708,-1.490875 -0.02883,-0.104979 -0.05631,-0.402466 -0.06101,-0.660879 -0.01265,-0.720271 -1.180426,-2.017013 -1.793678,-1.991719 -0.616771,0.02548 -0.983027,-0.390133 -0.803378,-0.911638 0.293003,-0.850629 1.522443,-0.531102 1.39858,0.363523 -0.06034,0.436718 1.197926,2.048254 1.603335,2.053307 0.521384,0.0052 0.494706,-1.297123 -0.03216,-1.555555 -0.35427,-0.173815 -0.446443,-0.373239 -0.388726,-0.840641 0.07789,-0.63078 -1.087954,-1.918842 -1.7407,-1.923239 -0.892237,-0.0052 -1.22314,-0.858359 -0.519575,-1.33833 0.362112,-0.247015 0.359298,-1.354429 -0.0035,-1.611795 -0.47828,-0.338785 -0.480828,-0.884468 -0.0052,-1.22102 0.393952,-0.278993 0.374514,-1.405119 -0.0295,-1.700213 -0.467222,-0.3414 -0.435246,-0.906462 0.06917,-1.22308 0.306743,-0.192506 0.312641,-1.341558 0.0073,-1.497898 -0.75055,-0.384838 -0.353465,-1.493124 0.481231,-1.343097 0.702586,0.126285 0.787147,1.174587 0.111414,1.380079 -0.339055,0.10302 -0.224627,1.205199 0.161553,1.557191 0.246816,0.22496 0.319075,0.348036 0.319075,0.543704 0,0.195674 -0.07219,0.318742 -0.319075,0.543704 -0.443761,0.404411 -0.496581,1.504164 -0.08212,1.70947 0.560598,0.27772 0.508982,1.121987 -0.07943,1.300926 -0.324709,0.09882 -0.198674,1.565965 0.134407,1.565965 0.151101,0 1.585512,-1.602324 1.563732,-1.746874 -0.01075,-0.06898 -0.04088,-0.250437 -0.06736,-0.40327 -0.05898,-0.335836 0.04759,-0.547995 0.366134,-0.728054 0.366738,-0.207531 0.371363,-1.394 0.0073,-1.60061 -0.856301,-0.48458 -0.153577,-1.695935 0.723125,-1.246473 0.450193,0.230866 0.424855,0.94851 -0.04425,1.242766 -0.298028,0.187102 -0.294474,1.523052 0.0035,1.563808 0.299504,0.04088 1.646238,-1.482255 1.5748,-1.781049 -0.03016,-0.126095 -0.05831,-0.403939 -0.06301,-0.61744 -0.01405,-0.650289 -1.210102,-1.918325 -1.802179,-1.9101 -0.704303,0.01075 -1.062781,-0.649685 -0.619049,-1.138872 0.528889,-0.583121 1.505715,-0.03755 1.251901,0.699095 -0.08707,0.252782 -0.07682,0.272155 0.468226,0.886913 1.015216,1.144958 1.017823,1.14689 1.245602,0.928684 0.305739,-0.292867 0.09084,-1.408291 -0.271416,-1.408291 -0.431561,0 -0.337646,-0.991896 0.11336,-1.197948 0.839509,-0.383496 1.462775,0.645194 0.742103,1.224813 -0.463332,0.372639 -0.453546,1.137632 0.02,1.569167 0.561402,0.511595 0.303325,1.231463 -0.441479,1.231463 -0.520847,0 -1.900449,1.460107 -1.840018,1.947416 0.072,0.580441 -0.270076,0.956509 -0.869997,0.956509 -0.543838,0 -1.751217,1.475962 -1.759288,2.150628 -0.0088,0.703567 1.231397,2.234381 1.744938,2.15455 0.805435,-0.125223 1.194207,0.721846 0.581779,1.267615 -0.193053,0.172005 -0.207864,0.232341 -0.207864,0.846388 0,0.614021 0.01405,0.674318 0.207864,0.846391 0.57702,0.514213 0.302118,1.293351 -0.456294,1.293351 -0.257071,0 -0.355477,0.06301 -0.809552,0.515818 -0.925276,0.92336 -1.016086,1.044852 -1.016086,1.359148 0,0.238305 -0.05565,0.33711 -0.319079,0.570387 -0.319077,0.282207 -0.319077,0.282207 -0.319077,0.878809 0,0.59666 0,0.59666 0.319077,0.87883 0.451671,0.399452 0.396636,0.98345 -0.1137,1.206193 -0.337043,0.147006 -0.315728,1.397371 0.02682,1.591404 0.50335,0.284824 0.539482,0.77562 0.08653,1.17617 -0.505094,0.446708 -0.486527,1.245944 0.04022,1.715551 0.472382,0.421435 0.493899,0.739194 0.07984,1.178314 -0.398444,0.42251 -0.422842,1.348563 -0.04424,1.687195 0.548063,0.490482 0.291259,1.379615 -0.398511,1.379615 -0.277315,0 -0.33255,0.04826 -1.255957,1.089904 -0.515486,0.581712 -0.574476,0.681444 -0.574476,0.971334 0,0.403674 -0.400856,0.842591 -0.769787,0.842842 -0.368949,2.34e-4 -1.741982,1.514342 -1.801607,1.986732 -0.02415,0.189173 -0.06724,0.399583 -0.09667,0.467623 -0.04626,0.107864 1.307983,1.748543 1.443483,1.748543 0.37525,0 0.550945,-1.379673 0.189626,-1.489526 -0.593781,-0.180531 -0.639563,-1.023484 -0.07092,-1.305183 0.835681,-0.413995 1.469538,0.71419 0.705355,1.255416 -0.362382,0.256669 -0.364594,1.291982 -0.0035,1.547841 0.378601,0.268197 0.490615,0.699181 0.295682,1.137751 -0.07574,0.170457 1.258239,1.642994 1.488342,1.642994 0.344282,0 0.302386,-1.220772 -0.05162,-1.500202 -0.455624,-0.35983 -0.421907,-1.013036 0.06301,-1.224746 0.321289,-0.140291 0.314654,-1.433589 -0.0088,-1.598907 -0.593911,-0.304127 -0.449992,-1.1919 0.215984,-1.332026 0.775895,-0.163148 1.164658,0.721898 0.554231,1.261816 -0.319079,0.282211 -0.319079,0.282211 -0.319079,0.878811 0,0.596595 0,0.596595 0.319079,0.878809 0.451265,0.399049 0.407761,0.942975 -0.09526,1.192184 -0.354671,0.175768 -0.346492,1.341346 0.01075,1.518292 0.59076,0.292668 0.651626,1.040046 0.112285,1.378621 -0.424854,0.266659 -0.204911,1.420217 0.252112,1.322369 0.260356,-0.05565 1.250822,-1.306689 1.195857,-1.510361 -0.174149,-0.645595 -0.153767,-0.760337 0.190839,-1.074387 0.494101,-0.45026 0.498259,-1.247559 0.0088,-1.680438 -0.476874,-0.421772 -0.419961,-0.979615 0.133387,-1.307233 0.437993,-0.25935 0.406823,-1.189508 -0.05362,-1.596667 -0.337379,-0.298431 -0.4144,-0.603632 -0.233818,-0.926879 0.173077,-0.30996 -1.37222,-1.857894 -1.781437,-1.784365 -0.808739,0.145456 -1.223454,-0.761986 -0.572462,-1.252522 0.556709,-0.419493 1.219184,0.03419 1.117878,0.765922 -0.06234,0.45093 1.324686,2.053013 1.668212,1.92673 0.302654,-0.111196 0.158743,-1.240633 -0.19834,-1.556405 -0.537673,-0.475534 -0.361776,-1.166664 0.323501,-1.271075 0.781975,-0.119196 1.149659,1.021354 0.430486,1.335277 -0.33322,0.145456 -0.297091,1.363546 0.04759,1.607775 0.475464,0.336774 0.470571,0.937357 -0.01075,1.209189 -0.25841,0.146125 -0.362045,1.244562 -0.137814,1.459431 0.323838,0.310228 1.727698,-1.273293 1.579211,-1.781336 -0.121999,-0.417281 -0.01619,-0.725573 0.329871,-0.961638 0.387249,-0.264242 0.346962,-1.216092 -0.06569,-1.558089 -0.307549,-0.254658 -0.370492,-0.539549 -0.22846,-1.032973 0.05631,-0.196198 -1.190234,-1.747222 -1.418509,-1.764732 -0.05095,-0.0035 -0.236031,-0.0035 -0.411516,0.0052 -0.69168,0.02548 -1.015622,-0.760052 -0.502478,-1.21801 0.521248,-0.46521 1.383306,0.08479 1.182771,0.754591 -0.09848,0.328664 1.257754,1.998967 1.539037,1.895554 0.244404,-0.08977 0.192055,-1.297519 -0.06167,-1.427703 -0.316933,-0.162482 -0.479824,-0.574137 -0.368282,-0.93074 0.10872,-0.3475 0.139029,-0.29146 -0.672328,-1.24014 -0.636277,-0.743966 -0.639093,-0.746023 -0.938939,-0.701171 -0.950019,0.142052 -1.309221,-0.9489 -0.452204,-1.373462 0.408098,-0.202173 0.357822,-1.290781 -0.07501,-1.623981 -0.508716,-0.391608 -0.472785,-1.023904 0.07038,-1.239469 0.799907,-0.317402 1.393558,0.614895 0.757503,1.189574 -0.381821,0.344952 -0.431224,1.483891 -0.07714,1.778818 0.281941,0.234889 0.382021,0.519304 0.2806,0.797901 -0.09741,0.267798 -0.123075,0.222627 0.618581,1.086445 0.952747,1.109604 1.052545,1.123493 1.052545,0.146528 0,-0.601354 -0.01265,-0.647269 -0.203507,-0.76736 -0.514881,-0.323168 -0.549135,-0.94351 -0.07219,-1.308049 0.433035,-0.331011 0.423248,-1.295073 -0.01739,-1.659512 -0.306611,-0.253853 -0.373242,-0.523929 -0.237365,-0.96179 0.106789,-0.34408 -1.249738,-1.858291 -1.614438,-1.802157 -0.796393,0.12253 -1.295923,-0.665437 -0.736304,-1.161589 0.126815,-0.112285 0.288309,-0.248625 0.359029,-0.302788 0.09733,-0.07467 0.12857,-0.235818 0.12857,-0.665637 0,-0.429818 -0.03083,-0.590966 -0.12857,-0.66564 -0.775291,-0.59425 -0.810142,-1.202137 -0.08212,-1.432315 0.836438,-0.264445 1.326604,0.775592 0.606044,1.285936 -0.364122,0.257942 -0.362848,1.367025 0.0035,1.625351 0.299571,0.212221 0.436119,0.577087 0.322764,0.862654 -0.09539,0.240314 -0.128244,0.185958 0.711651,1.176699 0.820597,0.968004 1.120993,0.96059 1.120993,-0.02748 0,-0.542097 -0.0018,-0.546384 -0.312375,-0.785553 -0.646867,-0.497988 -0.402802,-1.313466 0.393015,-1.313466 0.317937,0 0.717046,0.360369 0.717046,0.647473 0,0.226435 -0.205792,0.651628 -0.315458,0.651628 -0.356614,0 -0.492624,1.359449 -0.153434,1.533353 0.197816,0.101428 0.168863,0.125551 1.062028,-0.880585 0.429145,-0.483375 0.590223,-0.719184 0.547994,-0.802406 -0.03286,-0.06502 -0.06301,-0.300846 -0.06635,-0.524468 -0.0088,-0.586875 -1.273219,-2.00058 -1.788039,-2.00058 -0.935634,0 -1.170277,-1.114574 -0.321892,-1.529186 0.464606,-0.227103 0.485251,-0.902929 0.03552,-1.157258 -0.612281,-0.346024 -0.601755,-1.363761 0.01404,-1.363761 0.254324,0 0.400859,-1.191795 0.168459,-1.369171 -0.670198,-0.511327 -0.763084,-0.701474 -0.584394,-1.196512 0.117578,-0.32558 -1.376652,-1.89673 -1.693913,-1.781156 -0.720001,0.262232 -1.290125,-0.633395 -0.739158,-1.161188 0.559323,-0.535861 1.362358,-0.06635 1.229358,0.718623 -0.04558,0.270612 0.197007,0.604301 1.340988,1.842503 0.03619,0.03955 0.229247,0.06367 0.428545,0.05362 0.812105,-0.04022 1.142276,0.902206 0.465008,1.327336 -0.284355,0.178507 -0.284688,1.404886 0,1.619117 0.452808,0.341265 0.484917,0.743276 0.09243,1.15941 -0.350518,0.37163 -0.418756,1.155846 -0.114217,1.311958 0.356281,0.182674 1.517623,-1.170068 1.458987,-1.699503 -0.05095,-0.459175 -0.01619,-0.520178 0.560868,-0.961831 0.317467,-0.243329 0.156242,-0.992284 -0.25734,-1.19534 -0.376458,-0.184816 -0.610002,-0.700227 -0.495777,-1.094233 0.126285,-0.435581 0.128244,-0.431627 -0.56596,-1.173314 -0.595187,-0.635876 -0.669527,-0.690668 -0.88243,-0.649886 -1.046466,0.200506 -1.37009,-1.185545 -0.362182,-1.551353 0.398782,-0.14472 0.331815,-1.248048 -0.08834,-1.453342 -0.547663,-0.267665 -0.619722,-0.816646 -0.156054,-1.190309 0.746466,-0.601686 1.587505,0.409911 0.902527,1.085617 -0.306877,0.302653 -0.426063,1.339159 -0.17684,1.537342 0.282008,0.224223 1.58129,-1.461469 1.518433,-1.969974 -0.04424,-0.360505 -0.03216,-0.394087 0.242993,-0.657729 0.43672,-0.418353 0.442554,-1.35764 0.01075,-1.747727 -0.234271,-0.211626 -0.279192,-0.304665 -0.279192,-0.578093 0,-0.273359 0.04491,-0.36647 0.279192,-0.578092 0.267194,-0.241387 0.279192,-0.275171 0.279192,-0.784669 0,-0.506637 -0.01405,-0.545381 -0.279192,-0.799885 -0.68682,-0.657999 0.06635,-1.659438 0.927605,-1.232925 0.529225,0.262166 0.564217,0.994802 0.06367,1.336181 -0.386849,0.263842 -0.353331,1.1416 0.05631,1.480996 0.251508,0.208269 0.290052,0.284891 0.290052,0.575949 0,0.28851 -0.04088,0.37163 -0.290052,0.590426 -0.411986,0.361644 -0.446643,1.358104 -0.05631,1.624231 0.715336,0.487935 0.325646,1.446467 -0.592507,1.457427 -0.317064,0.0035 -0.694602,0.37773 -1.5442,1.529586 -0.485721,0.658535 0.671544,2.506801 1.504316,2.40248 0.287841,-0.03619 0.432029,-0.0073 0.727308,0.142909 0.448721,0.229056 3.819257,-1.490553 3.819257,-1.948685 0,-0.510792 0.362382,-0.828725 0.944501,-0.828725 0.57796,0 1.788645,-1.368941 1.718213,-1.94287 -0.05228,-0.428208 -0.05162,-0.43022 0.277583,-0.730381 0.4758,-0.433635 0.504894,-1.307627 0.05429,-1.636805 -0.481298,-0.351655 -0.458506,-1.007273 0.04693,-1.352144 -0.965431,0.190173 0.297021,0.353264 1.210186,0.561537 0.01405,0.391472 -0.0073,0.453144 -0.243329,0.686591 -0.300442,0.297291 -0.406355,1.516114 -0.140291,1.613942 -1.763117,-0.202912 0.461523,-0.21477 0.395025,0.470573 0.0679,0.628569 -0.28737,1.030418 -0.910823,1.030418 -0.406757,0 -1.776209,1.476525 -1.718891,1.853357 0.104435,0.686639 -0.410712,1.138443 -1.097471,0.962486 -0.332282,-0.08511 -3.67392,1.584836 -3.76973,1.883898 -0.01405,0.04225 -0.04826,0.213961 -0.07748,0.38209 -0.03955,0.227912 -0.143456,0.386647 -0.408901,0.623942 -0.393014,0.351522 -0.518232,1.323046 -0.178506,1.385051 0.338383,0.06167 1.580082,-1.551058 1.457212,-1.892717 -0.25734,-0.715518 0.445567,-1.244631 1.121649,-0.84433 0.438866,0.259822 3.971958,-1.704595 4.036779,-2.244489 0.06435,-0.534988 0.356614,-0.768373 0.887236,-0.708156 0.423181,0.04826 1.996701,-1.457922 1.852719,-1.773139 -0.294675,-0.645126 0.136957,-1.243303 0.809733,-1.122394 0.312106,-0.956387 0.851426,2.709609 0.515687,0.46769 0.195125,0.491619 -0.244135,0.975472 -0.850235,0.936363 -0.22765,-0.01405 -0.324039,0.02357 -0.457903,0.180387 -0.09331,0.109455 -0.428676,0.48934 -0.745347,0.844241 -0.564888,0.633059 -0.575479,0.652768 -0.558386,1.038235 0.02883,0.655449 -0.344885,0.899683 -1.139279,0.744054 -0.394759,-0.07736 -3.961916,1.835587 -4.034633,2.163579 -0.114761,0.517897 -0.482774,0.836881 -0.860565,0.746056 -0.379273,-0.09117 -1.75469,1.447104 -1.696176,1.89701 0.07662,0.588819 -0.285025,1.035714 -0.838204,1.035714 -0.514546,0 -1.703417,1.288047 -1.772393,1.920223 -0.05967,0.544509 1.094818,2.010362 1.543993,1.960912 0.342337,-0.03755 0.349174,-1.224553 0.0088,-1.393556 -0.903833,-0.447783 -0.426464,-1.637532 0.535057,-1.333525 0.484648,0.153243 1.712788,-1.136532 1.640836,-1.723123 -0.07876,-0.64077 0.358963,-1.075306 0.888637,-0.882378 0.321021,0.116911 0.308352,0.12555 1.0805,-0.736177 0.630378,-0.703458 0.720605,-0.838883 0.674739,-1.012539 -0.156243,-0.591971 -0.145934,-0.685433 0.10336,-0.924232 0.419962,-0.402267 1.025116,-0.27477 1.20744,0.254456 0.165292,0.479758 -0.161957,0.897238 -0.727243,0.927779 -0.248626,0.01405 -0.379137,0.06844 -0.500669,0.210889 -0.09043,0.106054 -0.424587,0.484381 -0.742686,0.840894 -0.540085,0.60531 -0.578362,0.671954 -0.578362,1.007676 0,0.503484 -0.309826,0.806254 -0.825091,0.806254 -0.452941,0 -1.758731,1.256017 -1.777158,1.709382 -0.0052,0.131577 -0.01405,0.301448 -0.02,0.377329 -0.0073,0.07589 -0.126285,0.239509 -0.267933,0.363519 -0.458639,0.401329 -0.422441,1.60279 0.04826,1.598317 0.209341,-0.0018 1.539629,-1.485423 1.498658,-1.671139 -0.198293,-0.898779 0.149148,-1.368354 0.848912,-1.147138 0.336238,0.106244 1.856957,-1.225009 1.730076,-1.514618 -0.297827,-0.679797 0.16672,-1.275794 0.84841,-1.088482 0.14741,0.04022 0.290052,0.07381 0.316866,0.07381 0.267464,0 1.526645,-1.71628 1.43579,-1.956976 -0.22558,-0.597669 0.156934,-1.06968 0.807807,-0.996801 0.597197,0.06702 1.857138,-1.334308 1.773869,-1.972759 -0.120598,-0.924626 1.094475,-1.268874 1.3954,-0.395361 0.175958,0.510459 -0.175554,0.919727 -0.793925,0.924675 -0.571458,0.0052 -1.867032,1.398981 -1.791976,1.928628 0.08124,0.572732 -0.359631,1.020378 -0.881237,0.894966 -0.282543,-0.0679 -1.826402,1.666731 -1.761238,1.978915 0.106788,0.511599 -0.254527,0.893792 -0.845168,0.893867 -0.529024,5.5e-5 -1.740237,1.250126 -1.740237,1.796003 0,0.481231 -0.314185,0.802193 -0.785254,0.802193 -0.494702,0 -1.808557,1.46079 -1.741948,1.936678 0.08264,0.589824 -0.181791,0.920578 -0.822764,1.029137 -0.454885,0.07717 -1.74914,1.509821 -1.752887,1.940495 -0.0035,0.359498 -0.135333,0.637886 -0.373708,0.787598 -0.351322,0.220484 -0.236557,1.679213 0.122189,1.554012 0.405684,-0.141503 1.36956,-1.627968 1.321216,-2.037403 -0.07984,-0.675557 0.383965,-1.054449 0.991198,-0.809851 0.798096,0.32149 0.487194,1.330775 -0.409908,1.330775 -0.538275,0 -1.749724,1.487462 -1.678783,2.061291 0.04155,0.33691 0.02415,0.384837 -0.244135,0.669326 -0.408297,0.432967 -0.437793,1.354377 -0.05429,1.697598 0.129101,0.115428 0.258613,0.301248 0.28784,0.412724 0.07769,0.296889 -0.02215,0.580103 -0.28784,0.818119 -0.388656,0.347833 -0.321088,1.722025 0.07803,1.588844 0.236842,-0.07891 1.445206,-1.564122 1.404926,-1.726652 -0.02356,-0.09453 -0.06502,-0.258212 -0.0919,-0.363587 -0.07448,-0.289583 0.107645,-0.621865 0.418687,-0.763192 0.371096,-0.168648 0.394021,-1.369968 0.0295,-1.542872 -0.846448,-0.401461 -0.515016,-1.477255 0.421502,-1.368147 0.416076,0.04826 0.416076,0.04826 1.060538,-0.736605 0.80538,-0.981108 0.773881,-0.924601 0.685699,-1.230526 -0.09827,-0.341063 0.05765,-0.691647 0.378873,-0.850683 0.335567,-0.166173 0.389395,-1.444152 0.0657,-1.562701 -0.890004,-0.32605 -0.498926,-1.485787 0.454754,-1.348758 0.495977,0.07133 1.960329,-1.418018 1.75975,-1.789617 -0.334628,-0.61992 0.223961,-1.309241 0.870278,-1.073836 0.358761,0.13072 0.401796,0.10551 1.1197,-0.654577 0.50476,-0.534387 0.677242,-0.767589 0.635876,-0.859726 -0.300843,-0.669862 0.237223,-1.319827 0.8916,-1.077007 0.310496,0.115292 1.825036,-1.346132 1.74719,-1.685861 -0.156243,-0.682134 -0.149362,-0.748115 0.102884,-0.989764 0.421505,-0.403807 1.026304,-0.277181 1.208963,0.252982 0.161743,0.469636 -0.122938,0.845448 -0.721423,0.952588 -0.289517,0.05162 -0.434844,0.145791 -0.798004,0.515953 -1.108493,1.130058 -1.132739,1.16177 -1.080399,1.412482 0.10853,0.519908 -0.241317,0.912441 -0.813343,0.912441 -0.434508,0 -1.91283,1.441499 -1.806737,1.761714 0.12717,0.38363 -0.293738,0.836513 -0.777255,0.836513 -0.486124,0 -1.865877,1.561999 -1.829038,2.07057 0.02548,0.352327 0.0073,0.397104 -0.259216,0.630848 -0.436184,0.382694 -0.440475,1.394107 -0.0088,1.773992 0.60484,0.530767 0.246214,1.255233 -0.622,1.256526 -0.510858,6.98e-4 -1.685627,1.41706 -1.69682,2.045723 -0.0073,0.344482 -0.04425,0.439602 -0.26009,0.653169 -0.331813,0.327926 -0.394221,1.578649 -0.08675,1.736357 0.655451,0.336037 0.332286,1.295656 -0.436317,1.295656 -0.497719,0 -1.813612,1.542557 -1.750614,2.052123 0.04291,0.347836 0.02682,0.392011 -0.242997,0.678502 -0.379741,0.402735 -0.458304,1.580922 -0.102353,1.534808 0.460515,-0.05967 1.497968,-1.425055 1.442101,-1.897979 -0.07307,-0.619185 0.159268,-0.876953 0.790681,-0.877148 0.657329,-2.29e-4 1.914372,-1.364431 1.837149,-1.993804 -0.05631,-0.458439 0.03755,-0.669192 0.372437,-0.835004 0.302386,-0.149887 0.378401,-1.43568 0.08996,-1.523367 -0.883811,-0.268736 -0.539416,-1.504228 0.38658,-1.386552 0.411181,0.05228 1.930311,-1.459409 1.788676,-1.779882 -0.200435,-0.453545 -0.07943,-0.837163 0.330676,-1.048772 0.408364,-0.210674 0.429078,-1.400832 0.02815,-1.599576 -0.733071,-0.363187 -0.468427,-1.334234 0.363657,-1.334234 0.712714,0 0.946719,0.978167 0.311903,1.30364 -0.30252,0.155053 -0.291125,1.464343 0.01405,1.694855 0.616169,0.46434 0.296823,1.28099 -0.501005,1.28099 -0.555702,0 -1.871797,1.510221 -1.802773,2.06872 0.04424,0.358561 0.03286,0.389395 -0.243732,0.639027 -0.439202,0.396768 -0.445368,1.39794 -0.01075,1.790346 0.567969,0.513137 0.261092,1.233293 -0.525473,1.233293 -0.46923,0 -1.979318,1.5156 -1.853338,1.860101 0.20103,0.549672 -0.215317,1.094496 -0.780821,1.021812 -0.525337,-0.06736 -1.770335,1.365322 -1.69808,1.954275 0.06369,0.519909 -0.209888,0.882376 -0.726953,0.962884 -0.41688,0.06502 -1.917905,1.664376 -1.840206,1.960924 0.06435,0.245274 -0.06301,0.52527 -0.349376,0.769907 -0.364058,0.310765 -0.367409,1.227625 -0.0052,1.544208 0.644252,0.563748 0.422506,1.242204 -0.495175,1.514927 -0.356481,0.105905 -1.592497,1.542787 -1.543638,1.794455 0.086,0.443089 -0.20565,0.938142 -0.688092,1.167816 -0.281944,0.134272 -0.317202,1.158776 -0.04693,1.358124 0.284085,0.209413 0.32759,0.184674 0.997357,-0.568306 0.933716,-1.049677 0.925296,-1.035279 0.73763,-1.263875 -0.344281,-0.419223 -0.01265,-1.162439 0.520111,-1.162439 0.959933,0 1.085606,1.252752 0.142576,1.422231 -0.419829,0.0754 -2.232972,1.813989 -2.236362,2.216417 -0.23227,0.554028 -1.774715,0.396901 -0.795046,-0.591971 z m 2.419323,0.167981 c 0.527216,-0.600279 1.513896,-0.01211 1.197277,0.713977 -1.306761,0.181459 -1.341431,0.08888 -1.197277,-0.713977 z m 2.68698,-0.110666 c 0.445033,-0.357957 0.460516,-1.48995 0.02482,-1.822913 -0.465275,-0.355675 -0.424652,-1.002229 0.07682,-1.221105 0.18696,-0.08158 0.195603,-0.116503 0.195603,-0.786815 0,-0.670378 -0.0088,-0.705215 -0.195603,-0.786813 -0.501473,-0.218864 -0.542096,-0.865438 -0.07682,-1.221096 0.434108,-0.331814 0.419226,-1.369578 -0.02482,-1.737389 -0.776531,-0.643047 -0.124339,-1.472373 0.903198,-1.148357 0.252847,0.07984 1.58546,-1.499543 1.508818,-1.788073 -0.181792,-0.684676 -0.122938,-0.914158 0.286634,-1.117053 0.616906,-0.305604 1.281151,0.320352 0.981626,0.925084 -0.132856,0.268064 -0.39898,0.416274 -0.74764,0.416274 -0.318674,0 -1.757814,1.676672 -1.757814,2.047989 0,0.335098 -0.135673,0.58017 -0.405617,0.733005 -0.355678,0.201246 -0.362315,1.430238 -0.0088,1.605409 0.503014,0.249163 0.54652,0.793115 0.09524,1.192171 -0.499932,0.442148 -0.473388,1.68464 0.03552,1.679619 0.223626,-0.0035 1.526415,-1.484334 1.502085,-1.708794 -0.0088,-0.08903 -0.04088,-0.291057 -0.06864,-0.448987 -0.06234,-0.349979 0.08707,-0.602425 0.438932,-0.742089 0.382425,-0.151839 0.38477,-1.380592 0.0035,-1.532088 -0.861027,-0.341667 -0.505029,-1.452532 0.431624,-1.347075 0.419828,0.04759 0.419828,0.04759 1.052641,-0.652298 0.864942,-0.956174 0.857419,-0.944699 0.748042,-1.140501 -0.225222,-0.403071 -0.01075,-0.974494 0.415874,-1.103969 0.287236,-0.08742 0.212435,-1.381001 -0.08936,-1.547007 -0.854639,-0.469902 -0.245878,-1.713171 0.627093,-1.280702 0.501677,0.248559 0.558921,0.765793 0.127904,1.155275 -0.504558,0.455893 -0.368949,2.073426 0.141909,1.692404 0.419762,-0.313045 1.419398,-1.550127 1.369437,-1.694711 -0.208935,-0.604301 -0.171124,-0.706012 0.452073,-1.216662 0.333287,-0.273159 0.21303,-1.157085 -0.208483,-1.533175 -0.287908,-0.256804 -0.358962,-0.371093 -0.358962,-0.57702 0,-0.205935 0.07112,-0.32015 0.358962,-0.577021 0.42157,-0.376054 0.54176,-1.260061 0.208483,-1.533153 -0.524602,-0.429883 -0.567503,-0.486393 -0.567503,-0.74778 0,-0.45844 0.291393,-0.69762 0.835179,-0.685433 0.487867,0.01075 2.058034,-1.464129 1.911589,-1.79579 -0.193531,-0.438262 -0.08707,-0.819304 0.287907,-1.031531 0.346024,-0.195863 0.369956,-1.445191 0.03083,-1.593335 -0.510256,-0.222745 -0.565291,-0.806771 -0.113686,-1.206201 0.434574,-0.384298 0.495908,-1.436865 0.09526,-1.63531 -0.669728,-0.331814 -0.429012,-1.345032 0.319547,-1.345032 0.758244,0 1.013835,0.864318 0.386846,1.308371 -0.350315,0.24809 -0.380076,1.434883 -0.03955,1.583455 0.483576,0.211077 0.519305,0.873272 0.06569,1.219889 -0.400388,0.306005 -0.417415,1.40971 -0.02615,1.686872 0.671939,0.475934 0.365198,1.308373 -0.482101,1.308373 -0.560263,0 -1.8394,1.448114 -1.812547,2.051949 0.01619,0.352928 -0.0088,0.411181 -0.282009,0.679525 -0.456963,0.448385 -0.457969,1.382028 -0.0035,1.748934 0.257274,0.206936 0.297358,0.282745 0.297358,0.563211 0,0.280468 -0.04022,0.356348 -0.297358,0.56328 -0.427133,0.343545 -0.456092,1.327369 -0.05026,1.695917 0.638156,0.579032 0.349446,1.33251 -0.510522,1.33251 -0.459848,0 -1.731056,1.468719 -1.731056,2.00007 0,0.506102 -0.303459,0.82743 -0.781337,0.82743 -0.432901,0 -1.889837,1.554297 -1.826537,1.948599 0.04624,0.286231 -0.119387,0.686095 -0.337713,0.816682 -0.293805,0.175769 -0.245408,1.459605 0.06435,1.709323 0.575749,0.464071 0.255867,1.211234 -0.545247,1.273595 -0.415402,0.03216 -1.858928,1.62338 -1.786706,1.969318 0.06503,0.310966 -0.10551,0.671811 -0.38202,0.808765 -0.226031,0.111959 -0.228056,0.119197 -0.228056,0.821726 0,1.164035 0.208817,1.185622 1.174928,0.121455 0.857789,-0.944911 0.858377,-0.945889 0.703894,-1.157193 -0.205531,-0.281136 -0.157458,-0.649953 0.119387,-0.915048 0.252378,-0.241786 0.226103,-0.238503 0.9685,-0.120598 0.193126,0.03083 1.607915,-1.602216 1.531243,-1.76732 -0.21934,-0.472382 -0.06435,-1.010356 0.332416,-1.154939 0.338183,-0.123264 0.29756,-1.395828 -0.05029,-1.568043 -0.683978,-0.338853 -0.459979,-1.334353 0.300174,-1.334353 0.695879,0 0.989268,0.79481 0.463603,1.256031 -0.27638,0.242525 -0.279193,0.251375 -0.279193,0.883703 0,0.632322 0.0035,0.641172 0.279193,0.88369 0.543972,0.477343 0.23153,1.256031 -0.504023,1.256031 -0.469902,0 -1.802579,1.54293 -1.820779,2.107996 -0.01405,0.44309 -0.25238,0.69817 -0.72635,0.778033 -0.523259,0.08815 -1.940501,1.700616 -1.879257,2.138041 -1.225507,0.212769 -1.497171,0.43739 -1.149779,-0.467221 z m 5.415244,-1.687323 c -0.600346,-0.182531 -0.681658,-1.087452 -0.119713,-1.332727 0.808754,-0.352995 1.443397,0.593578 0.785186,1.171169 0.406957,0.561469 -0.05362,0.695461 1.516395,-0.104979 -0.166505,-0.626893 -0.155387,-0.685011 0.189506,-0.990065 0.497453,-0.439939 0.502079,-1.329836 0.0088,-1.765746 -0.451199,-0.399047 -0.407761,-0.94298 0.09524,-1.192184 0.353601,-0.175219 0.346964,-1.404146 -0.0088,-1.605413 -0.503351,-0.284825 -0.539481,-0.77562 -0.08653,-1.176181 0.319078,-0.282209 0.319078,-0.282209 0.319078,-0.878811 0,-0.596661 0,-0.596661 -0.319078,-0.878811 -0.601287,-0.531773 -0.210007,-1.422608 0.554229,-1.261803 0.665974,0.1401 0.809921,1.027864 0.215912,1.332014 -0.316933,0.162292 -0.33007,1.458405 -0.01619,1.595413 0.501474,0.218864 0.542163,0.86545 0.07682,1.221108 -0.419093,0.320351 -0.420969,1.393826 -0.0035,1.713318 0.453412,0.346628 0.417683,1.008794 -0.06569,1.219868 -0.336304,0.146861 -0.312708,1.42155 0.03016,1.615457 -0.928951,2.146103 -2.050313,1.242446 -3.172104,1.318404 z M 64.400903,40.752417 58.010184,22.616816 c -1.108925,-3.146941 -0.27631,-1.801144 0.246549,-0.237699 l 4.159181,12.436576 c 1.274051,3.188301 2.136565,5.732366 2.130284,5.243743 -0.0014,-0.139433 -0.782505,-6.260995 -1.43703,-10.678427 -0.159267,-1.075037 -0.884185,-9.497789 -0.971924,-10.277578 l 0.515014,0.192983 1.135729,11.038725 c 1.282477,11.411714 1.106166,11.817082 0.612882,10.417285 z m 10.117903,-9.519346 c 0,-0.09453 0.0699,-0.670579 0.154648,-1.280016 0.263372,-1.894751 0.481766,-4.175651 0.846881,-8.845495 0.0637,-0.811879 0.2743,-0.922615 0.2743,-0.144195 0,1.026517 -0.56462,7.20025 -0.82775,9.050823 -0.135891,0.95547 0.738697,1.659685 1.708866,-0.545714 l 3.895769,-7.28368 -0.642915,0.136218 -4.635899,8.605906 c -0.591904,0.509385 -0.774736,0.581647 -0.773831,0.305671 z"
         id="path9299"
         inkscape:connector-curvature="0" />
      <path
         sodipodi:nodetypes="csssscsscssssscsssccsscsssscsssccssssssscsssssssssssssssscsscssscssscssccsssssssccccsscsscsscssssssscccsssscsscssscccccsssssssssscscssscsssssssscccccccccccccc"
         style="fill:#ffa000;fill-opacity:1;stroke-width:1.76338"
         d="m 65.56179,64.930472 c -0.786377,-0.346224 -0.791934,-1.360936 -0.0087,-1.716065 0.390225,-0.177031 0.449135,-1.087966 0.08521,-1.316015 -0.28851,-0.180791 -0.45099,-0.516688 -0.39301,-0.81276 0.07714,-0.394289 -1.308718,-1.920774 -1.801269,-1.983984 -0.498966,-0.06367 -0.751456,-0.335368 -0.752678,-0.809142 -0.0018,-0.565627 -1.316731,-2.068762 -1.810264,-2.068762 -0.857084,0 -1.083501,-1.147119 -0.27864,-1.411723 0.25611,-0.08426 0.337217,-0.08264 0.517655,0.01075 0.211785,0.109074 0.220848,0.103359 0.880402,-0.560399 0.92009,-0.926001 0.931213,-0.944165 0.76612,-1.249502 -0.271813,-0.502615 0.48313,-1.434633 0.865699,-1.06876 0.329133,0.31472 1.880568,-1.33998 1.682171,-1.794066 -0.162692,-0.372369 -0.07893,-0.674018 0.254582,-0.917322 0.379362,-0.276713 0.42886,-1.489401 0.06713,-1.646961 -0.303156,-0.132121 -0.451719,-0.459447 -0.389232,-0.857743 0.07487,-0.477677 -1.284561,-1.948813 -1.800921,-1.948813 -0.757311,0 -1.026865,-0.75113 -0.454836,-1.267277 0.455433,-0.410914 0.45457,-1.327973 -0.0018,-1.739583 -0.272544,-0.245945 -0.298985,-0.305606 -0.299181,-0.675809 -2.45e-4,-0.588684 -1.288647,-2.039707 -1.811019,-2.039707 -0.47385,0 -0.818306,-0.349644 -0.759237,-0.770767 0.0391,-0.279461 0.01061,-0.342807 -0.337814,-0.740239 -0.979055,-1.117622 -0.973608,-1.113406 -1.412634,-1.094246 -0.605455,0.02682 -0.862045,-0.243196 -0.797158,-0.837861 0.0686,-0.627296 -1.179155,-2.01084 -1.816486,-2.014418 -0.54767,-0.0035 -0.803564,-0.285492 -0.738063,-0.814552 0.07201,-0.583588 -1.254034,-2.005871 -1.871749,-2.00715 -0.49234,-5.3e-4 -0.788044,-0.258613 -0.788044,-0.686532 0,-0.313648 0.14798,-0.647876 0.286394,-0.647876 0.501884,0 0.517058,-1.233671 0.02048,-1.672067 -0.327544,-0.289245 -0.330794,-0.297357 -0.286197,-0.711131 0.06925,-0.803788 -0.05235,-0.723838 0.52587,-0.616238 0.758433,-0.138694 1.186099,0.787064 0.61016,1.320876 -0.405335,0.375653 -0.432374,1.449179 -0.04175,1.663055 0.258759,0.141697 0.339468,0.35876 0.310113,0.834112 -0.02916,0.472516 1.339525,1.964812 1.744411,1.901977 0.611416,-0.09491 1.114007,0.440408 0.905633,0.964511 -0.09031,0.227174 0.01061,0.373375 0.907664,1.31582 0.570334,0.59921 0.619765,0.632858 0.871661,0.593713 0.448013,-0.06952 0.798226,0.291526 0.785848,0.810134 -0.01389,0.592504 1.097609,1.795228 1.664486,1.800702 0.803819,0.0073 1.111039,0.421235 0.829651,1.116595 -0.03712,0.09063 0.129006,0.325245 0.56523,0.801147 0.951389,1.037652 0.862341,0.970999 1.270238,0.950795 0.810481,-0.0402 1.118752,0.72403 0.518912,1.286332 -0.486112,0.455624 -0.4824,1.212279 0.0087,1.69581 0.32277,0.318074 0.32668,0.328598 0.277314,0.746092 -0.06493,0.546987 1.19416,2.039901 1.647107,1.953283 0.772565,-0.147936 1.241028,0.770195 0.660322,1.293992 -0.403748,0.364124 -0.42873,1.406524 -0.04175,1.736391 0.528984,0.450729 0.31515,1.272455 -0.331187,1.272455 -0.464776,0 -1.901011,1.599823 -1.901011,2.117514 0,0.417682 -0.327209,0.781813 -0.70243,0.781813 -0.386119,0 -1.791259,1.539262 -1.862196,2.040029 -0.02849,0.199818 -0.07541,0.419493 -0.104693,0.488069 -0.03643,0.08567 0.0999,0.299973 0.437607,0.686681 0.818403,0.937121 1.042417,1.147839 1.170298,1.100909 0.412297,-0.15129 0.502084,-0.135333 0.790006,0.139957 0.291228,0.278455 0.342319,0.580373 0.163064,0.963446 -0.06891,0.147005 1.333493,1.753458 1.52945,1.751768 0.07403,-5.1e-4 0.186391,-0.03216 0.249416,-0.0706 0.594257,-0.359567 1.13864,0.776531 0.603401,1.259335 -0.518649,0.467757 -0.360078,1.559157 0.226496,1.559157 0.242659,0 1.351358,-1.361845 1.29159,-1.586485 -0.1758,-0.660612 -0.157112,-0.765498 0.188719,-1.067931 0.49605,-0.433571 0.500227,-1.27338 0.0087,-1.703156 -0.65588,-0.5734 -0.131332,-1.558022 0.680641,-1.277279 0.270488,0.09343 0.279041,0.08989 0.574842,-0.241388 0.165135,-0.184935 0.48876,-0.543372 0.719139,-0.796461 0.449071,-0.493295 0.468421,-0.548195 0.32602,-0.924868 -0.121332,-0.320686 0.0265,-0.682423 0.343446,-0.838978 0.334964,-0.165837 0.357429,-1.401448 0.02782,-1.544971 -0.512087,-0.22308 -0.536338,-1.198762 -0.03248,-1.312006 0.358354,-0.08073 0.331452,-1.35819 -0.03445,-1.624943 -0.468287,-0.3416 -0.450131,-0.998664 0.03445,-1.238207 0.343512,-0.169935 0.365312,-1.430022 0.02718,-1.577315 -0.54575,-0.23777 -0.517854,-1.147633 0.04042,-1.317063 0.325221,-0.0986 0.241462,-1.339358 -0.107605,-1.594008 -0.710536,-0.518299 -0.158168,-1.626947 0.637724,-1.280125 0.300639,0.130898 1.880921,-1.444843 1.736963,-1.732093 -0.03512,-0.06939 -0.06626,-0.311569 -0.06978,-0.538545 -0.01061,-0.619451 -1.308526,-2.064683 -1.856356,-2.066192 -0.869726,-0.0018 -1.099895,-1.038516 -0.306205,-1.378352 0.295538,-0.126435 0.33967,-0.127904 0.563441,-0.01737 0.432901,0.214028 1.665888,-1.134673 1.593826,-1.743453 -0.05502,-0.468894 -0.07348,-0.437254 0.535213,-0.935265 0.113442,-0.09276 0.150424,-0.225839 0.150424,-0.539748 0,-0.438865 -0.0318,-0.489206 -0.46358,-0.734054 -0.39394,-0.223366 -0.537135,-0.609531 -0.411565,-1.110066 0.147108,-0.586071 -0.977384,-1.862121 -1.618401,-1.836721 -0.961318,0.03822 -1.169117,-1.108774 -0.253264,-1.397834 0.188392,-0.05969 0.311709,-0.06034 0.423958,-0.0018 0.08695,0.04424 0.176788,0.08105 0.199526,0.08105 0.270952,0 1.472311,-1.797135 1.429933,-2.139137 -0.0444,-0.361107 -0.0338,-0.391003 0.243453,-0.640703 0.438404,-0.395426 0.444567,-1.372413 0.01061,-1.77498 -0.22511,-0.20908 -0.279237,-0.317067 -0.279237,-0.55718 0,-0.24018 0.05435,-0.348103 0.279237,-0.557179 0.268302,-0.249161 0.2793,-0.280937 0.2793,-0.809963 0,-0.530364 -0.01061,-0.559791 -0.2793,-0.802437 -1.265517,-1.949783 2.414167,-1.10806 0.836097,0.0986 -0.357428,0.252717 -0.363256,1.212066 -0.0087,1.453439 0.497176,0.338516 0.497176,0.896539 0,1.235103 -0.362068,0.246548 -0.351994,1.403011 0.01389,1.662145 0.684095,0.483645 0.342983,1.306314 -0.541641,1.306314 -0.509901,0 -1.69401,1.482953 -1.722731,2.157534 -0.03248,0.770035 1.066213,1.941914 1.811478,1.931537 0.382278,-0.005 0.550055,0.02682 0.665754,0.126434 0.380352,0.328258 3.777689,-1.499799 3.85914,-2.076545 0.06429,-0.456091 0.350734,-0.688061 0.855036,-0.692831 0.630238,-0.005 1.822256,-1.338331 1.784121,-1.994236 -0.02585,-0.447647 -0.02049,-0.460719 0.299184,-0.743203 0.446484,-0.394154 0.504334,-1.422186 0.0931,-1.654489 -0.533757,-0.301514 -0.533757,-0.978943 0,-1.280472 0.711704,0.604035 0.09697,0.379608 0.757062,1.232496 -0.312765,0.235294 -0.316806,1.49882 -0.0072,1.634568 0.712993,0.310699 0.293084,1.358975 -0.544491,1.359277 -0.470142,1.6e-4 -1.76985,1.481845 -1.770371,2.018198 -5.11e-4,0.654308 -0.390294,0.953974 -1.028396,0.790782 -0.3455,-0.08835 -0.3455,-0.08835 -1.972072,0.814765 -1.951815,1.083771 -1.875469,1.025474 -1.928029,1.471459 -0.03643,0.30835 -0.09363,0.401191 -0.409579,0.664432 -0.482597,0.402063 -0.556084,1.196231 -0.137102,1.481561 0.595381,0.405417 0.259024,1.30415 -0.488033,1.30415 -0.861783,0 -2.250202,2.083468 -1.750653,2.627087 1.330439,1.44776 1.31382,1.433247 1.594858,1.389622 0.414215,-0.06435 0.798355,0.146861 0.895572,0.492088 0.141339,0.502344 -0.132163,0.872478 -0.715724,0.96779 -0.511555,0.08352 -1.838087,1.567952 -1.838844,2.057694 -5.42e-4,0.262772 -0.05299,0.37988 -0.279767,0.619655 -0.399967,0.42338 -0.432235,1.532731 -0.05037,1.721737 0.428396,0.211818 0.453444,0.790575 0.05037,1.15443 -0.403743,0.36419 -0.42879,1.406558 -0.04175,1.736405 0.418524,0.356682 0.418524,0.814872 0,1.171523 -0.361668,0.308216 -0.367631,1.482382 -0.0087,1.660019 0.428331,0.211817 0.453444,0.790577 0.05037,1.154432 -0.400895,0.361574 -0.434356,1.478561 -0.05037,1.668639 0.606712,0.30004 0.306272,1.340204 -0.387113,1.340204 -0.273868,0 -0.335096,0.05295 -1.294801,1.128517 -0.508511,0.569647 -0.566162,0.667649 -0.579945,0.984881 -0.01252,0.295282 -0.05901,0.389933 -0.287783,0.585133 -0.408316,0.348906 -0.420047,1.43322 -0.01931,1.755924 0.562579,0.452742 0.302161,1.267984 -0.405007,1.267984 -0.180693,0 -1.633079,1.467696 -1.647279,1.664667 -0.0035,0.02883 -0.01252,0.230125 -0.02117,0.447848 -0.0338,0.755602 -0.688813,1.172288 -1.371173,0.871857 z M 64.589342,40.849575 c -0.150616,-0.328995 -0.157654,-0.385103 -0.05167,-0.407694 0.199969,-0.04224 0.277777,0.09827 0.251074,0.45455 -0.02518,0.334632 -0.02518,0.334632 -0.199713,-0.04693 z m 10.02782,-9.645505 c 0,-0.204389 0.100788,-0.313445 0.209786,-0.226983 0.08437,0.06702 0.08926,0.113904 0.02048,0.19272 -0.103455,0.119196 -0.230592,0.137958 -0.230592,0.0342 z"
         id="path9301"
         inkscape:connector-curvature="0" />
      <text
         xml:space="preserve"
         style="font-style:oblique;font-variant:normal;font-weight:bold;font-stretch:semi-condensed;font-size:4.61398px;line-height:1.25;font-family:'DejaVu Sans';-inkscape-font-specification:'DejaVu Sans, Bold Oblique Semi-Condensed';font-variant-ligatures:normal;font-variant-caps:normal;font-variant-numeric:normal;font-variant-east-asian:normal;letter-spacing:0px;word-spacing:0px;fill:#ffab00;fill-opacity:1;stroke:none;stroke-width:0.115349"
         x="72.290581"
         y="68.468613"
         id="text5176"
         transform="matrix(0.94628523,0.01490672,-0.2007269,1.0536018,0,0)"><tspan
           sodipodi:role="line"
           id="tspan5174"
           x="72.290581"
           y="68.468613"
           style="font-style:oblique;font-variant:normal;font-weight:bold;font-stretch:semi-condensed;font-size:4.61398px;font-family:'DejaVu Sans';-inkscape-font-specification:'DejaVu Sans, Bold Oblique Semi-Condensed';font-variant-ligatures:normal;font-variant-caps:normal;font-variant-numeric:normal;font-variant-east-asian:normal;fill:#ffab00;fill-opacity:1;stroke-width:0.115349">PipeMaster</tspan></text>
    </g>
  </g>
</svg>
